<svg xmlns="http://www.w3.org/2000/svg" width="56" height="56" viewBox="0 0 56 56" role="img" aria-label="andy obstacle">
  <rect width="56" height="56" fill="#f8fafc"/>
  <rect x="20" y="41" width="15" height="2" fill="rgba(15,23,42,0.22)"/>
  <rect x="22" y="43" width="11" height="1" fill="rgba(15,23,42,0.15)"/>

  <rect x="17" y="27" width="22" height="2" fill="#7c2d12"/>
  <rect x="17" y="29" width="18" height="1" fill="#92400e"/>
  <rect x="35" y="26" width="4" height="4" fill="#f59e0b"/>
  <rect x="38" y="27" width="1" height="2" fill="#f59e0b"/>

  <rect x="24" y="17" width="8" height="9" fill="#111827"/>
  <rect x="22" y="22" width="12" height="4" fill="#111827"/>
  <rect x="25" y="13" width="6" height="4" fill="#111827"/>
  <rect x="23" y="16" width="10" height="2" fill="#111827"/>

  <rect x="26" y="18" width="4" height="3" fill="#86efac"/>
  <rect x="27" y="19" width="1" height="1" fill="#ef4444"/>
  <rect x="29" y="19" width="1" height="1" fill="#ef4444"/>
  <rect x="25" y="15" width="6" height="1" fill="#374151"/>
  <rect x="25" y="23" width="6" height="2" fill="#374151"/>

  <rect x="21" y="31" width="2" height="3" fill="rgba(125,211,252,0.65)"/>
  <rect x="25" y="32" width="2" height="3" fill="rgba(56,189,248,0.55)"/>
  <rect x="29" y="31" width="2" height="3" fill="rgba(56,189,248,0.55)"/>
  <rect x="23" y="35" width="8" height="1" fill="rgba(186,230,253,0.6)"/>
</svg>
