<svg xmlns="http://www.w3.org/2000/svg" width="56" height="56" viewBox="0 0 56 56" role="img" aria-label="black spaniel obstacle">
  <rect width="56" height="56" fill="#f8fafc"/>
  <rect x="12" y="25" width="22" height="12" fill="#1f2937"/>
  <rect x="33" y="27" width="8" height="8" fill="#1f2937"/>
  <rect x="35" y="21" width="10" height="9" fill="#1f2937"/>
  <rect x="43" y="25" width="5" height="3" fill="#1f2937"/>
  <rect x="8" y="23" width="6" height="4" fill="#1f2937"/>
  <rect x="16" y="27" width="12" height="4" fill="#4b5563"/>
  <rect x="37" y="24" width="6" height="3" fill="#4b5563"/>
  <rect x="45" y="26" width="2" height="2" fill="#4b5563"/>
  <rect x="35" y="23" width="2" height="8" fill="#111827"/>
  <rect x="41" y="23" width="2" height="8" fill="#111827"/>
  <rect x="16" y="37" width="4" height="6" fill="#111827"/>
  <rect x="25" y="37" width="4" height="6" fill="#111827"/>
  <rect x="34" y="36" width="4" height="7" fill="#111827"/>
  <rect x="31" y="29" width="3" height="3" fill="#60a5fa"/>
  <rect x="41" y="25" width="2" height="2" fill="#f8fafc"/>
  <rect x="46" y="26" width="2" height="2" fill="#f8fafc"/>
</svg>
