<svg xmlns="http://www.w3.org/2000/svg" width="56" height="56" viewBox="0 0 56 56" role="img" aria-label="helicopter downdraft obstacle">
  <rect width="56" height="56" fill="#f8fafc"/>
  <rect x="6" y="10" width="44" height="3" fill="#1e293b"/>
  <rect x="27" y="13" width="3" height="3" fill="#475569"/>
  <rect x="15" y="17" width="24" height="12" fill="#334155"/>
  <rect x="39" y="21" width="10" height="4" fill="#334155"/>
  <rect x="30" y="19" width="7" height="6" fill="#94a3b8"/>
  <rect x="49" y="19" width="2" height="8" fill="#1e293b"/>
  <rect x="47" y="21" width="6" height="2" fill="#1e293b"/>
  <rect x="17" y="31" width="22" height="2" fill="#475569"/>
  <rect x="19" y="33" width="2" height="2" fill="#475569"/>
  <rect x="35" y="33" width="2" height="2" fill="#475569"/>
  <rect x="40" y="34" width="4" height="7" fill="rgba(56,189,248,0.75)"/>
  <rect x="44" y="40" width="4" height="9" fill="rgba(56,189,248,0.75)"/>
  <rect x="48" y="45" width="4" height="5" fill="rgba(56,189,248,0.75)"/>
  <rect x="52" y="47" width="2" height="2" fill="rgba(56,189,248,0.75)"/>
  <rect x="54" y="46" width="1" height="4" fill="rgba(56,189,248,0.75)"/>
  <rect x="42" y="36" width="2" height="2" fill="rgba(125,211,252,0.85)"/>
  <rect x="46" y="42" width="2" height="2" fill="rgba(125,211,252,0.85)"/>
  <rect x="50" y="47" width="2" height="2" fill="rgba(125,211,252,0.85)"/>
</svg>
