<svg xmlns="http://www.w3.org/2000/svg" width="56" height="56" viewBox="0 0 56 56" role="img" aria-label="player character">
  <rect width="56" height="56" fill="#f8fafc"/>

  <rect x="24" y="22" width="10" height="10" fill="#0f172a"/>
  <rect x="25" y="23" width="8" height="9" fill="#f97316"/>
  <rect x="24" y="24" width="1" height="2" fill="#f97316"/>
  <rect x="33" y="24" width="1" height="2" fill="#f97316"/>
  <rect x="29" y="24" width="1" height="6" fill="rgba(15,23,42,0.3)"/>
  <rect x="27" y="29" width="4" height="1" fill="rgba(15,23,42,0.3)"/>

  <rect x="27" y="16" width="5" height="5" fill="#ffd166"/>
  <rect x="28" y="18" width="3" height="2" fill="#0f172a"/>
  <rect x="27" y="20" width="5" height="1" fill="#0f172a"/>
  <rect x="28" y="17" width="2" height="1" fill="#e2e8f0"/>
  <rect x="27" y="18" width="1" height="2" fill="#475569"/>
  <rect x="31" y="18" width="1" height="2" fill="#475569"/>
  <rect x="27" y="21" width="5" height="1" fill="#1e293b"/>
  <rect x="28" y="22" width="2" height="1" fill="#1e293b"/>

  <rect x="26" y="31" width="2" height="6" fill="#1f2937"/>
  <rect x="30" y="31" width="2" height="6" fill="#1f2937"/>
  <rect x="25" y="36" width="3" height="2" fill="#0b1220"/>
  <rect x="30" y="36" width="3" height="2" fill="#0b1220"/>

  <rect x="24" y="23" width="1" height="13" fill="#000000"/>
  <rect x="34" y="23" width="1" height="13" fill="#000000"/>
  <rect x="21" y="35" width="2" height="1" fill="#f59e0b"/>
  <rect x="35" y="35" width="2" height="1" fill="#f59e0b"/>

  <rect x="25" y="36" width="4" height="1" fill="#334155"/>
  <rect x="30" y="36" width="4" height="1" fill="#334155"/>
  <rect x="24" y="37" width="4" height="1" fill="#334155"/>
  <rect x="31" y="37" width="4" height="1" fill="#334155"/>
  <rect x="24" y="38" width="4" height="1" fill="#334155"/>
  <rect x="31" y="38" width="4" height="1" fill="#334155"/>
  <rect x="23" y="39" width="4" height="1" fill="#334155"/>
  <rect x="32" y="39" width="4" height="1" fill="#334155"/>
  <rect x="23" y="40" width="4" height="1" fill="#334155"/>
  <rect x="32" y="40" width="4" height="1" fill="#334155"/>
  <rect x="22" y="41" width="4" height="1" fill="#334155"/>
  <rect x="33" y="41" width="4" height="1" fill="#334155"/>
  <rect x="22" y="42" width="4" height="1" fill="#334155"/>
  <rect x="33" y="42" width="4" height="1" fill="#334155"/>

  <rect x="28" y="24" width="1" height="1" fill="#fb923c"/>
  <rect x="30" y="25" width="1" height="1" fill="#fb923c"/>
  <rect x="27" y="26" width="1" height="1" fill="#fb923c"/>
</svg>
