<svg xmlns="http://www.w3.org/2000/svg" width="56" height="56" viewBox="0 0 56 56" role="img" aria-label="tree obstacle">
  <rect width="56" height="56" fill="#f8fafc"/>
  <rect x="28" y="4" width="1" height="1" fill="#14532d"/>
  <rect x="27" y="5" width="3" height="1" fill="#14532d"/>
  <rect x="26" y="6" width="5" height="1" fill="#14532d"/>
  <rect x="25" y="7" width="7" height="2" fill="#14532d"/>
  <rect x="24" y="9" width="9" height="2" fill="#14532d"/>
  <rect x="23" y="11" width="11" height="3" fill="#166534"/>
  <rect x="22" y="14" width="13" height="3" fill="#166534"/>
  <rect x="21" y="17" width="15" height="3" fill="#15803d"/>
  <rect x="20" y="20" width="17" height="3" fill="#15803d"/>
  <rect x="21" y="23" width="15" height="3" fill="#15803d"/>
  <rect x="22" y="26" width="13" height="2" fill="#15803d"/>
  <rect x="26" y="28" width="4" height="10" fill="#7f5539"/>
  <rect x="27" y="28" width="2" height="10" fill="#5e3b2a"/>
  <rect x="26" y="7" width="2" height="1" fill="#22c55e"/>
  <rect x="24" y="12" width="2" height="1" fill="#22c55e"/>
  <rect x="31" y="13" width="2" height="1" fill="#22c55e"/>
  <rect x="23" y="18" width="2" height="1" fill="#22c55e"/>
  <rect x="32" y="19" width="2" height="1" fill="#22c55e"/>
  <rect x="20" y="24" width="2" height="2" fill="#0f3d2e"/>
  <rect x="35" y="24" width="2" height="2" fill="#0f3d2e"/>
</svg>
